{
    "asset" : {
        "generator" : "Khronos glTF Blender I/O v1.3.48",
        "version" : "2.0"
    },
    "scene" : 0,
    "scenes" : [
        {
            "name" : "Scene",
            "nodes" : [
                0
            ]
        }
    ],
    "nodes" : [
        {
            "mesh" : 0,
            "name" : "Wine",
            "scale" : [
                0.04680801182985306,
                0.19999998807907104,
                0.04680801182985306
            ],
            "translation" : [
                0.06902733445167542,
                0.21813614666461945,
                0.30234843492507935
            ]
        }
    ],
    "materials" : [
        {
            "doubleSided" : true,
            "emissiveFactor" : [
                0,
                0,
                0
            ],
            "name" : "Wine_Sticker_Up",
            "pbrMetallicRoughness" : {
                "baseColorFactor" : [
                    0.2330162227153778,
                    0.0005221394239924848,
                    0.0015470378566533327,
                    1
                ],
                "metallicFactor" : 0,
                "roughnessFactor" : 0.30000001192092896
            }
        },
        {
            "doubleSided" : true,
            "emissiveFactor" : [
                0,
                0,
                0
            ],
            "name" : "Wine",
            "pbrMetallicRoughness" : {
                "baseColorFactor" : [
                    0,
                    0,
                    0,
                    1
                ],
                "metallicFactor" : 0,
                "roughnessFactor" : 0.20000000298023224
            }
        },
        {
            "doubleSided" : true,
            "emissiveFactor" : [
                0,
                0,
                0
            ],
            "name" : "Wine_Sticker",
            "pbrMetallicRoughness" : {
                "metallicFactor" : 0,
                "roughnessFactor" : 0.5
            }
        }
    ],
    "meshes" : [
        {
            "name" : "Cylinder.001",
            "primitives" : [
                {
                    "attributes" : {
                        "POSITION" : 0,
                        "NORMAL" : 1,
                        "TEXCOORD_0" : 2
                    },
                    "indices" : 3,
                    "material" : 0
                },
                {
                    "attributes" : {
                        "POSITION" : 4,
                        "NORMAL" : 5,
                        "TEXCOORD_0" : 6
                    },
                    "indices" : 7,
                    "material" : 1
                },
                {
                    "attributes" : {
                        "POSITION" : 8,
                        "NORMAL" : 9,
                        "TEXCOORD_0" : 10
                    },
                    "indices" : 11,
                    "material" : 2
                }
            ]
        }
    ],
    "accessors" : [
        {
            "bufferView" : 0,
            "componentType" : 5126,
            "count" : 207,
            "max" : [
                1.0004044771194458,
                1,
                1.0004043579101562
            ],
            "min" : [
                -1.0004043579101562,
                -0.34196406602859497,
                -1.0004044771194458
            ],
            "type" : "VEC3"
        },
        {
            "bufferView" : 1,
            "componentType" : 5126,
            "count" : 207,
            "type" : "VEC3"
        },
        {
            "bufferView" : 2,
            "componentType" : 5126,
            "count" : 207,
            "type" : "VEC2"
        },
        {
            "bufferView" : 3,
            "componentType" : 5123,
            "count" : 894,
            "type" : "SCALAR"
        },
        {
            "bufferView" : 4,
            "componentType" : 5126,
            "count" : 168,
            "max" : [
                1.0005241632461548,
                0.6160611510276794,
                1.0005240440368652
            ],
            "min" : [
                -1.0005240440368652,
                -0.9964895248413086,
                -1.0005241632461548
            ],
            "type" : "VEC3"
        },
        {
            "bufferView" : 5,
            "componentType" : 5126,
            "count" : 168,
            "type" : "VEC3"
        },
        {
            "bufferView" : 6,
            "componentType" : 5126,
            "count" : 168,
            "type" : "VEC2"
        },
        {
            "bufferView" : 7,
            "componentType" : 5123,
            "count" : 750,
            "type" : "SCALAR"
        },
        {
            "bufferView" : 8,
            "componentType" : 5126,
            "count" : 78,
            "max" : [
                1.0005241632461548,
                0.12101486325263977,
                1.0005240440368652
            ],
            "min" : [
                -1.0005240440368652,
                -0.3667643964290619,
                -1.0005241632461548
            ],
            "type" : "VEC3"
        },
        {
            "bufferView" : 9,
            "componentType" : 5126,
            "count" : 78,
            "type" : "VEC3"
        },
        {
            "bufferView" : 10,
            "componentType" : 5126,
            "count" : 78,
            "type" : "VEC2"
        },
        {
            "bufferView" : 11,
            "componentType" : 5123,
            "count" : 216,
            "type" : "SCALAR"
        }
    ],
    "bufferViews" : [
        {
            "buffer" : 0,
            "byteLength" : 2484,
            "byteOffset" : 0
        },
        {
            "buffer" : 0,
            "byteLength" : 2484,
            "byteOffset" : 2484
        },
        {
            "buffer" : 0,
            "byteLength" : 1656,
            "byteOffset" : 4968
        },
        {
            "buffer" : 0,
            "byteLength" : 1788,
            "byteOffset" : 6624
        },
        {
            "buffer" : 0,
            "byteLength" : 2016,
            "byteOffset" : 8412
        },
        {
            "buffer" : 0,
            "byteLength" : 2016,
            "byteOffset" : 10428
        },
        {
            "buffer" : 0,
            "byteLength" : 1344,
            "byteOffset" : 12444
        },
        {
            "buffer" : 0,
            "byteLength" : 1500,
            "byteOffset" : 13788
        },
        {
            "buffer" : 0,
            "byteLength" : 936,
            "byteOffset" : 15288
        },
        {
            "buffer" : 0,
            "byteLength" : 936,
            "byteOffset" : 16224
        },
        {
            "buffer" : 0,
            "byteLength" : 624,
            "byteOffset" : 17160
        },
        {
            "buffer" : 0,
            "byteLength" : 432,
            "byteOffset" : 17784
        }
    ],
    "buffers" : [
        {
            "byteLength" : 18216,
            "uri" : "data:application/octet-stream;base64,"
        }
    ]
}
