{
    "asset" : {
        "generator" : "Khronos glTF Blender I/O v1.3.48",
        "version" : "2.0"
    },
    "scene" : 0,
    "scenes" : [
        {
            "name" : "Scene",
            "nodes" : [
                0
            ]
        }
    ],
    "nodes" : [
        {
            "mesh" : 0,
            "name" : "Hennessy",
            "rotation" : [
                0,
                -0.40825119614601135,
                0,
                0.9128696322441101
            ],
            "scale" : [
                0.05316196382045746,
                0.14999999105930328,
                0.05316196382045746
            ],
            "translation" : [
                0.1413879692554474,
                0.16621311008930206,
                0.4149397611618042
            ]
        }
    ],
    "materials" : [
        {
            "doubleSided" : true,
            "emissiveFactor" : [
                0,
                0,
                0
            ],
            "name" : "Hennessy_Sticker_Up",
            "pbrMetallicRoughness" : {
                "baseColorFactor" : [
                    0.8000000715255737,
                    0.2764388620853424,
                    0.013792572543025017,
                    1
                ],
                "metallicFactor" : 0.6000000238418579,
                "roughnessFactor" : 0.4000000059604645
            }
        },
        {
            "doubleSided" : true,
            "emissiveFactor" : [
                0,
                0,
                0
            ],
            "name" : "Hennessy",
            "pbrMetallicRoughness" : {
                "baseColorFactor" : [
                    0.1192762702703476,
                    0.0021789330057799816,
                    0.005086333025246859,
                    1
                ],
                "metallicFactor" : 0,
                "roughnessFactor" : 0.30000001192092896
            }
        },
        {
            "doubleSided" : true,
            "emissiveFactor" : [
                0,
                0,
                0
            ],
            "name" : "Hennessy_Sticker",
            "pbrMetallicRoughness" : {
                "baseColorTexture" : {
                    "index" : 0,
                    "texCoord" : 0
                },
                "metallicFactor" : 0,
                "roughnessFactor" : 0.5
            }
        }
    ],
    "meshes" : [
        {
            "name" : "Cylinder.003",
            "primitives" : [
                {
                    "attributes" : {
                        "POSITION" : 0,
                        "NORMAL" : 1,
                        "TEXCOORD_0" : 2
                    },
                    "indices" : 3,
                    "material" : 0
                },
                {
                    "attributes" : {
                        "POSITION" : 4,
                        "NORMAL" : 5,
                        "TEXCOORD_0" : 6
                    },
                    "indices" : 7,
                    "material" : 1
                },
                {
                    "attributes" : {
                        "POSITION" : 8,
                        "NORMAL" : 9,
                        "TEXCOORD_0" : 10
                    },
                    "indices" : 11,
                    "material" : 2
                }
            ]
        }
    ],
    "textures" : [
        {
            "source" : 0
        }
    ],
    "images" : [
        {
            "bufferView" : 12,
            "mimeType" : "image/jpeg",
            "name" : "Hennesi"
        }
    ],
    "accessors" : [
        {
            "bufferView" : 0,
            "componentType" : 5126,
            "count" : 90,
            "max" : [
                0.3128342926502228,
                1,
                0.31283438205718994
            ],
            "min" : [
                -0.31283432245254517,
                0.2565341293811798,
                -0.312834233045578
            ],
            "type" : "VEC3"
        },
        {
            "bufferView" : 1,
            "componentType" : 5126,
            "count" : 90,
            "type" : "VEC3"
        },
        {
            "bufferView" : 2,
            "componentType" : 5126,
            "count" : 90,
            "type" : "VEC2"
        },
        {
            "bufferView" : 3,
            "componentType" : 5123,
            "count" : 390,
            "type" : "SCALAR"
        },
        {
            "bufferView" : 4,
            "componentType" : 5126,
            "count" : 116,
            "max" : [
                1,
                0.2565341591835022,
                1
            ],
            "min" : [
                -1,
                -1,
                -1
            ],
            "type" : "VEC3"
        },
        {
            "bufferView" : 5,
            "componentType" : 5126,
            "count" : 116,
            "type" : "VEC3"
        },
        {
            "bufferView" : 6,
            "componentType" : 5126,
            "count" : 116,
            "type" : "VEC2"
        },
        {
            "bufferView" : 7,
            "componentType" : 5123,
            "count" : 486,
            "type" : "SCALAR"
        },
        {
            "bufferView" : 8,
            "componentType" : 5126,
            "count" : 20,
            "max" : [
                0.8521599173545837,
                -0.1865983009338379,
                0.983989417552948
            ],
            "min" : [
                -0.8521601557731628,
                -0.7509348392486572,
                -0.983989417552948
            ],
            "type" : "VEC3"
        },
        {
            "bufferView" : 9,
            "componentType" : 5126,
            "count" : 20,
            "type" : "VEC3"
        },
        {
            "bufferView" : 10,
            "componentType" : 5126,
            "count" : 20,
            "type" : "VEC2"
        },
        {
            "bufferView" : 11,
            "componentType" : 5123,
            "count" : 48,
            "type" : "SCALAR"
        }
    ],
    "bufferViews" : [
        {
            "buffer" : 0,
            "byteLength" : 1080,
            "byteOffset" : 0
        },
        {
            "buffer" : 0,
            "byteLength" : 1080,
            "byteOffset" : 1080
        },
        {
            "buffer" : 0,
            "byteLength" : 720,
            "byteOffset" : 2160
        },
        {
            "buffer" : 0,
            "byteLength" : 780,
            "byteOffset" : 2880
        },
        {
            "buffer" : 0,
            "byteLength" : 1392,
            "byteOffset" : 3660
        },
        {
            "buffer" : 0,
            "byteLength" : 1392,
            "byteOffset" : 5052
        },
        {
            "buffer" : 0,
            "byteLength" : 928,
            "byteOffset" : 6444
        },
        {
            "buffer" : 0,
            "byteLength" : 972,
            "byteOffset" : 7372
        },
        {
            "buffer" : 0,
            "byteLength" : 240,
            "byteOffset" : 8344
        },
        {
            "buffer" : 0,
            "byteLength" : 240,
            "byteOffset" : 8584
        },
        {
            "buffer" : 0,
            "byteLength" : 160,
            "byteOffset" : 8824
        },
        {
            "buffer" : 0,
            "byteLength" : 96,
            "byteOffset" : 8984
        },
        {
            "buffer" : 0,
            "byteLength" : 85063,
            "byteOffset" : 9080
        }
    ],
    "buffers" : [
        {
            "byteLength" : 94144,
            "uri" : "data:application/octet-stream;base64,"
        }
    ]
}
