{
    "asset" : {
        "generator" : "Khronos glTF Blender I/O v1.3.48",
        "version" : "2.0"
    },
    "scene" : 0,
    "scenes" : [
        {
            "name" : "Scene",
            "nodes" : [
                0
            ]
        }
    ],
    "nodes" : [
        {
            "mesh" : 0,
            "name" : "JackDaniel's",
            "scale" : [
                0.04978083446621895,
                0.15557368099689484,
                0.05047706887125969
            ],
            "translation" : [
                -0.22482407093048096,
                0.17403806746006012,
                0.26098859310150146
            ]
        }
    ],
    "materials" : [
        {
            "doubleSided" : true,
            "emissiveFactor" : [
                0,
                0,
                0
            ],
            "name" : "Sticker",
            "pbrMetallicRoughness" : {
                "baseColorTexture" : {
                    "index" : 0,
                    "texCoord" : 0
                },
                "metallicFactor" : 0,
                "roughnessFactor" : 0.5
            }
        },
        {
            "doubleSided" : true,
            "emissiveFactor" : [
                0,
                0,
                0
            ],
            "name" : "Glass.001",
            "pbrMetallicRoughness" : {
                "baseColorFactor" : [
                    0.1106889471411705,
                    0.014858861453831196,
                    0,
                    1
                ],
                "metallicFactor" : 0,
                "roughnessFactor" : 0.5
            }
        },
        {
            "doubleSided" : true,
            "emissiveFactor" : [
                0,
                0,
                0
            ],
            "name" : "Sticker_1",
            "pbrMetallicRoughness" : {
                "metallicFactor" : 0,
                "roughnessFactor" : 0.3086956739425659
            }
        }
    ],
    "meshes" : [
        {
            "name" : "Cube.001",
            "primitives" : [
                {
                    "attributes" : {
                        "POSITION" : 0,
                        "NORMAL" : 1,
                        "TEXCOORD_0" : 2
                    },
                    "indices" : 3,
                    "material" : 0
                },
                {
                    "attributes" : {
                        "POSITION" : 4,
                        "NORMAL" : 5,
                        "TEXCOORD_0" : 6
                    },
                    "indices" : 7,
                    "material" : 1
                },
                {
                    "attributes" : {
                        "POSITION" : 8,
                        "NORMAL" : 9,
                        "TEXCOORD_0" : 10
                    },
                    "indices" : 11,
                    "material" : 2
                }
            ]
        }
    ],
    "textures" : [
        {
            "source" : 0
        }
    ],
    "images" : [
        {
            "bufferView" : 4,
            "mimeType" : "image/jpeg",
            "name" : "jack-daniels-no_7"
        }
    ],
    "accessors" : [
        {
            "bufferView" : 0,
            "componentType" : 5126,
            "count" : 12,
            "max" : [
                0.9585546255111694,
                0.02987051010131836,
                0.9612578749656677
            ],
            "min" : [
                -0.9585546255111694,
                -0.7892143726348877,
                -0.9612578749656677
            ],
            "type" : "VEC3"
        },
        {
            "bufferView" : 1,
            "componentType" : 5126,
            "count" : 12,
            "type" : "VEC3"
        },
        {
            "bufferView" : 2,
            "componentType" : 5126,
            "count" : 12,
            "type" : "VEC2"
        },
        {
            "bufferView" : 3,
            "componentType" : 5123,
            "count" : 24,
            "type" : "SCALAR"
        },
        {
            "bufferView" : 5,
            "componentType" : 5126,
            "count" : 72,
            "max" : [
                0.9944787621498108,
                0.5235013961791992,
                0.9944785237312317
            ],
            "min" : [
                -0.9944787621498108,
                -1,
                -0.9944785237312317
            ],
            "type" : "VEC3"
        },
        {
            "bufferView" : 6,
            "componentType" : 5126,
            "count" : 72,
            "type" : "VEC3"
        },
        {
            "bufferView" : 7,
            "componentType" : 5126,
            "count" : 72,
            "type" : "VEC2"
        },
        {
            "bufferView" : 8,
            "componentType" : 5123,
            "count" : 390,
            "type" : "SCALAR"
        },
        {
            "bufferView" : 9,
            "componentType" : 5126,
            "count" : 94,
            "max" : [
                0.4789890944957733,
                1.0111833810806274,
                0.47898876667022705
            ],
            "min" : [
                -0.4789890944957733,
                0.5235013961791992,
                -0.4789888858795166
            ],
            "type" : "VEC3"
        },
        {
            "bufferView" : 10,
            "componentType" : 5126,
            "count" : 94,
            "type" : "VEC3"
        },
        {
            "bufferView" : 11,
            "componentType" : 5126,
            "count" : 94,
            "type" : "VEC2"
        },
        {
            "bufferView" : 12,
            "componentType" : 5123,
            "count" : 270,
            "type" : "SCALAR"
        }
    ],
    "bufferViews" : [
        {
            "buffer" : 0,
            "byteLength" : 144,
            "byteOffset" : 0
        },
        {
            "buffer" : 0,
            "byteLength" : 144,
            "byteOffset" : 144
        },
        {
            "buffer" : 0,
            "byteLength" : 96,
            "byteOffset" : 288
        },
        {
            "buffer" : 0,
            "byteLength" : 48,
            "byteOffset" : 384
        },
        {
            "buffer" : 0,
            "byteLength" : 533598,
            "byteOffset" : 432
        },
        {
            "buffer" : 0,
            "byteLength" : 864,
            "byteOffset" : 534032
        },
        {
            "buffer" : 0,
            "byteLength" : 864,
            "byteOffset" : 534896
        },
        {
            "buffer" : 0,
            "byteLength" : 576,
            "byteOffset" : 535760
        },
        {
            "buffer" : 0,
            "byteLength" : 780,
            "byteOffset" : 536336
        },
        {
            "buffer" : 0,
            "byteLength" : 1128,
            "byteOffset" : 537116
        },
        {
            "buffer" : 0,
            "byteLength" : 1128,
            "byteOffset" : 538244
        },
        {
            "buffer" : 0,
            "byteLength" : 752,
            "byteOffset" : 539372
        },
        {
            "buffer" : 0,
            "byteLength" : 540,
            "byteOffset" : 540124
        }
    ],
    "buffers" : [
        {
            "byteLength" : 540664,
            "uri" : "data:application/octet-stream;base64,"
        }
    ]
}
