{
    "asset" : {
        "generator" : "Khronos glTF Blender I/O v1.3.48",
        "version" : "2.0"
    },
    "scene" : 0,
    "scenes" : [
        {
            "name" : "Scene",
            "nodes" : [
                0
            ]
        }
    ],
    "nodes" : [
        {
            "mesh" : 0,
            "name" : "Champagne",
            "rotation" : [
                0,
                -0.10011587291955948,
                0,
                0.9949758052825928
            ],
            "scale" : [
                0.054629139602184296,
                0.2003404051065445,
                0.054629139602184296
            ],
            "translation" : [
                -0.06511075794696808,
                0.21599966287612915,
                0.25826573371887207
            ]
        }
    ],
    "materials" : [
        {
            "doubleSided" : true,
            "emissiveFactor" : [
                0,
                0,
                0
            ],
            "name" : "Sticker_Up.001",
            "pbrMetallicRoughness" : {
                "baseColorFactor" : [
                    0.8688876032829285,
                    0.7758679986000061,
                    0.49050527811050415,
                    1
                ],
                "metallicFactor" : 0,
                "roughnessFactor" : 0.5
            }
        },
        {
            "doubleSided" : true,
            "emissiveFactor" : [
                0,
                0,
                0
            ],
            "name" : "Champagne",
            "pbrMetallicRoughness" : {
                "baseColorFactor" : [
                    0,
                    0.06506164371967316,
                    0.002330000512301922,
                    1
                ],
                "metallicFactor" : 0,
                "roughnessFactor" : 0.5
            }
        },
        {
            "doubleSided" : true,
            "emissiveFactor" : [
                0,
                0,
                0
            ],
            "name" : "Sticker_Main",
            "pbrMetallicRoughness" : {
                "baseColorTexture" : {
                    "index" : 0,
                    "texCoord" : 0
                },
                "metallicFactor" : 0,
                "roughnessFactor" : 0.5
            }
        }
    ],
    "meshes" : [
        {
            "name" : "Cylinder",
            "primitives" : [
                {
                    "attributes" : {
                        "POSITION" : 0,
                        "NORMAL" : 1,
                        "TEXCOORD_0" : 2
                    },
                    "indices" : 3,
                    "material" : 0
                },
                {
                    "attributes" : {
                        "POSITION" : 4,
                        "NORMAL" : 5,
                        "TEXCOORD_0" : 6
                    },
                    "indices" : 7,
                    "material" : 1
                },
                {
                    "attributes" : {
                        "POSITION" : 8,
                        "NORMAL" : 9,
                        "TEXCOORD_0" : 10
                    },
                    "indices" : 11,
                    "material" : 2
                }
            ]
        }
    ],
    "textures" : [
        {
            "source" : 0
        }
    ],
    "images" : [
        {
            "bufferView" : 12,
            "mimeType" : "image/jpeg",
            "name" : "\u00e6hampagne"
        }
    ],
    "accessors" : [
        {
            "bufferView" : 0,
            "componentType" : 5126,
            "count" : 108,
            "max" : [
                0.40890270471572876,
                0.9937994480133057,
                0.4089027941226959
            ],
            "min" : [
                -0.40890270471572876,
                0.46564406156539917,
                -0.408902645111084
            ],
            "type" : "VEC3"
        },
        {
            "bufferView" : 1,
            "componentType" : 5126,
            "count" : 108,
            "type" : "VEC3"
        },
        {
            "bufferView" : 2,
            "componentType" : 5126,
            "count" : 108,
            "type" : "VEC2"
        },
        {
            "bufferView" : 3,
            "componentType" : 5123,
            "count" : 606,
            "type" : "SCALAR"
        },
        {
            "bufferView" : 4,
            "componentType" : 5126,
            "count" : 144,
            "max" : [
                0.9684016108512878,
                0.46564406156539917,
                0.9684016108512878
            ],
            "min" : [
                -0.9684016108512878,
                -0.9810803532600403,
                -0.9684016108512878
            ],
            "type" : "VEC3"
        },
        {
            "bufferView" : 5,
            "componentType" : 5126,
            "count" : 144,
            "type" : "VEC3"
        },
        {
            "bufferView" : 6,
            "componentType" : 5126,
            "count" : 144,
            "type" : "VEC2"
        },
        {
            "bufferView" : 7,
            "componentType" : 5123,
            "count" : 750,
            "type" : "SCALAR"
        },
        {
            "bufferView" : 8,
            "componentType" : 5126,
            "count" : 28,
            "max" : [
                0.9417354464530945,
                -0.41585400700569153,
                0.9417353868484497
            ],
            "min" : [
                -0.9417354464530945,
                -0.848595142364502,
                -0.9417355060577393
            ],
            "type" : "VEC3"
        },
        {
            "bufferView" : 9,
            "componentType" : 5126,
            "count" : 28,
            "type" : "VEC3"
        },
        {
            "bufferView" : 10,
            "componentType" : 5126,
            "count" : 28,
            "type" : "VEC2"
        },
        {
            "bufferView" : 11,
            "componentType" : 5123,
            "count" : 72,
            "type" : "SCALAR"
        }
    ],
    "bufferViews" : [
        {
            "buffer" : 0,
            "byteLength" : 1296,
            "byteOffset" : 0
        },
        {
            "buffer" : 0,
            "byteLength" : 1296,
            "byteOffset" : 1296
        },
        {
            "buffer" : 0,
            "byteLength" : 864,
            "byteOffset" : 2592
        },
        {
            "buffer" : 0,
            "byteLength" : 1212,
            "byteOffset" : 3456
        },
        {
            "buffer" : 0,
            "byteLength" : 1728,
            "byteOffset" : 4668
        },
        {
            "buffer" : 0,
            "byteLength" : 1728,
            "byteOffset" : 6396
        },
        {
            "buffer" : 0,
            "byteLength" : 1152,
            "byteOffset" : 8124
        },
        {
            "buffer" : 0,
            "byteLength" : 1500,
            "byteOffset" : 9276
        },
        {
            "buffer" : 0,
            "byteLength" : 336,
            "byteOffset" : 10776
        },
        {
            "buffer" : 0,
            "byteLength" : 336,
            "byteOffset" : 11112
        },
        {
            "buffer" : 0,
            "byteLength" : 224,
            "byteOffset" : 11448
        },
        {
            "buffer" : 0,
            "byteLength" : 144,
            "byteOffset" : 11672
        },
        {
            "buffer" : 0,
            "byteLength" : 199316,
            "byteOffset" : 11816
        }
    ],
    "buffers" : [
        {
            "byteLength" : 211132,
            "uri" : "data:application/octet-stream;base64,"
        }
    ]
}
