{
    "asset" : {
        "generator" : "Khronos glTF Blender I/O v1.3.48",
        "version" : "2.0"
    },
    "scene" : 0,
    "scenes" : [
        {
            "name" : "Scene",
            "nodes" : [
                0
            ]
        }
    ],
    "nodes" : [
        {
            "mesh" : 0,
            "name" : "bar_stool_3",
            "translation" : [
                0.3167952299118042,
                -1.042779564857483,
                0.08418340981006622
            ]
        }
    ],
    "materials" : [
        {
            "doubleSided" : true,
            "emissiveFactor" : [
                0,
                0,
                0
            ],
            "name" : "wire_225143087",
            "pbrMetallicRoughness" : {
                "baseColorFactor" : [
                    0.8823530077934265,
                    0.5607839822769165,
                    0.34117600321769714,
                    1
                ],
                "metallicFactor" : 0,
                "roughnessFactor" : 0.8114382028579712
            }
        },
        {
            "doubleSided" : true,
            "emissiveFactor" : [
                0,
                0,
                0
            ],
            "name" : "wire_087225143",
            "pbrMetallicRoughness" : {
                "baseColorFactor" : [
                    0.34117600321769714,
                    0.8823530077934265,
                    0.5607839822769165,
                    1
                ],
                "metallicFactor" : 0,
                "roughnessFactor" : 0.8114382028579712
            }
        }
    ],
    "meshes" : [
        {
            "name" : "OBJ_TORSO_837-AI_Bar_stool_BLACK_and_BEECH.002",
            "primitives" : [
                {
                    "attributes" : {
                        "POSITION" : 0,
                        "NORMAL" : 1,
                        "TEXCOORD_0" : 2
                    },
                    "indices" : 3,
                    "material" : 0
                },
                {
                    "attributes" : {
                        "POSITION" : 4,
                        "NORMAL" : 5,
                        "TEXCOORD_0" : 6
                    },
                    "indices" : 7,
                    "material" : 1
                }
            ]
        }
    ],
    "accessors" : [
        {
            "bufferView" : 0,
            "componentType" : 5126,
            "count" : 7921,
            "max" : [
                0.23930296301841736,
                0.2379789650440216,
                0.24082288146018982
            ],
            "min" : [
                -0.2389163374900818,
                -0.476762980222702,
                -0.21553269028663635
            ],
            "type" : "VEC3"
        },
        {
            "bufferView" : 1,
            "componentType" : 5126,
            "count" : 7921,
            "type" : "VEC3"
        },
        {
            "bufferView" : 2,
            "componentType" : 5126,
            "count" : 7921,
            "type" : "VEC2"
        },
        {
            "bufferView" : 3,
            "componentType" : 5123,
            "count" : 37836,
            "type" : "SCALAR"
        },
        {
            "bufferView" : 4,
            "componentType" : 5126,
            "count" : 2360,
            "max" : [
                0.21058380603790283,
                0.402797669172287,
                0.23053321242332458
            ],
            "min" : [
                -0.21111643314361572,
                0.22701773047447205,
                -0.19206038117408752
            ],
            "type" : "VEC3"
        },
        {
            "bufferView" : 5,
            "componentType" : 5126,
            "count" : 2360,
            "type" : "VEC3"
        },
        {
            "bufferView" : 6,
            "componentType" : 5126,
            "count" : 2360,
            "type" : "VEC2"
        },
        {
            "bufferView" : 7,
            "componentType" : 5123,
            "count" : 13620,
            "type" : "SCALAR"
        }
    ],
    "bufferViews" : [
        {
            "buffer" : 0,
            "byteLength" : 95052,
            "byteOffset" : 0
        },
        {
            "buffer" : 0,
            "byteLength" : 95052,
            "byteOffset" : 95052
        },
        {
            "buffer" : 0,
            "byteLength" : 63368,
            "byteOffset" : 190104
        },
        {
            "buffer" : 0,
            "byteLength" : 75672,
            "byteOffset" : 253472
        },
        {
            "buffer" : 0,
            "byteLength" : 28320,
            "byteOffset" : 329144
        },
        {
            "buffer" : 0,
            "byteLength" : 28320,
            "byteOffset" : 357464
        },
        {
            "buffer" : 0,
            "byteLength" : 18880,
            "byteOffset" : 385784
        },
        {
            "buffer" : 0,
            "byteLength" : 27240,
            "byteOffset" : 404664
        }
    ],
    "buffers" : [
        {
            "byteLength" : 431904,
            "uri" : "data:application/octet-stream;base64,"
        }
    ]
}
