{
    "asset" : {
        "generator" : "Khronos glTF Blender I/O v1.3.48",
        "version" : "2.0"
    },
    "scene" : 0,
    "scenes" : [
        {
            "name" : "Scene",
            "nodes" : [
                0
            ]
        }
    ],
    "nodes" : [
        {
            "mesh" : 0,
            "name" : "bar_table",
            "rotation" : [
                0.7071068286895752,
                0,
                0,
                0.7071067094802856
            ],
            "translation" : [
                -0.49883270263671875,
                -1.08992600440979,
                1.1322250366210938
            ]
        }
    ],
    "materials" : [
        {
            "doubleSided" : true,
            "emissiveFactor" : [
                0,
                0,
                0
            ],
            "name" : "Material #29",
            "pbrMetallicRoughness" : {
                "baseColorTexture" : {
                    "index" : 0,
                    "texCoord" : 0
                },
                "metallicFactor" : 0,
                "roughnessFactor" : 0.5
            }
        },
        {
            "doubleSided" : true,
            "emissiveFactor" : [
                0,
                0,
                0
            ],
            "name" : "Material #28",
            "pbrMetallicRoughness" : {
                "baseColorTexture" : {
                    "index" : 1,
                    "texCoord" : 0
                },
                "metallicFactor" : 0,
                "roughnessFactor" : 0.5
            }
        },
        {
            "doubleSided" : true,
            "emissiveFactor" : [
                0,
                0,
                0
            ],
            "name" : "Material #31",
            "pbrMetallicRoughness" : {
                "baseColorTexture" : {
                    "index" : 2,
                    "texCoord" : 0
                },
                "metallicFactor" : 0,
                "roughnessFactor" : 0.5
            }
        },
        {
            "doubleSided" : true,
            "emissiveFactor" : [
                0,
                0,
                0
            ],
            "name" : "Material #30",
            "pbrMetallicRoughness" : {
                "baseColorTexture" : {
                    "index" : 3,
                    "texCoord" : 0
                },
                "metallicFactor" : 0,
                "roughnessFactor" : 0.5
            }
        }
    ],
    "meshes" : [
        {
            "name" : "20131015115015453271",
            "primitives" : [
                {
                    "attributes" : {
                        "POSITION" : 0,
                        "NORMAL" : 1,
                        "TEXCOORD_0" : 2
                    },
                    "indices" : 3,
                    "material" : 0
                },
                {
                    "attributes" : {
                        "POSITION" : 4,
                        "NORMAL" : 5,
                        "TEXCOORD_0" : 6
                    },
                    "indices" : 7,
                    "material" : 1
                },
                {
                    "attributes" : {
                        "POSITION" : 8,
                        "NORMAL" : 9,
                        "TEXCOORD_0" : 10
                    },
                    "indices" : 11,
                    "material" : 2
                },
                {
                    "attributes" : {
                        "POSITION" : 12,
                        "NORMAL" : 13,
                        "TEXCOORD_0" : 14
                    },
                    "indices" : 15,
                    "material" : 3
                }
            ]
        }
    ],
    "textures" : [
        {
            "source" : 0
        },
        {
            "source" : 1
        },
        {
            "source" : 2
        },
        {
            "source" : 3
        }
    ],
    "images" : [
        {
            "bufferView" : 4,
            "mimeType" : "image/jpeg",
            "name" : "marbel1"
        },
        {
            "bufferView" : 9,
            "mimeType" : "image/jpeg",
            "name" : "wood2.jpg"
        },
        {
            "bufferView" : 14,
            "mimeType" : "image/jpeg",
            "name" : "marbel2.jpg"
        },
        {
            "bufferView" : 19,
            "mimeType" : "image/jpeg",
            "name" : "wood1.jpg"
        }
    ],
    "accessors" : [
        {
            "bufferView" : 0,
            "componentType" : 5126,
            "count" : 864,
            "max" : [
                1.1294742822647095,
                1.2151457071304321,
                0.4222179651260376
            ],
            "min" : [
                -0.8445219993591309,
                -0.32699117064476013,
                -0.15171478688716888
            ],
            "type" : "VEC3"
        },
        {
            "bufferView" : 1,
            "componentType" : 5126,
            "count" : 864,
            "type" : "VEC3"
        },
        {
            "bufferView" : 2,
            "componentType" : 5126,
            "count" : 864,
            "type" : "VEC2"
        },
        {
            "bufferView" : 3,
            "componentType" : 5123,
            "count" : 2580,
            "type" : "SCALAR"
        },
        {
            "bufferView" : 5,
            "componentType" : 5126,
            "count" : 504,
            "max" : [
                1.217477798461914,
                1.2151457071304321,
                0.4155064821243286
            ],
            "min" : [
                -0.9325246810913086,
                -0.41499462723731995,
                -0.417202353477478
            ],
            "type" : "VEC3"
        },
        {
            "bufferView" : 6,
            "componentType" : 5126,
            "count" : 504,
            "type" : "VEC3"
        },
        {
            "bufferView" : 7,
            "componentType" : 5126,
            "count" : 504,
            "type" : "VEC2"
        },
        {
            "bufferView" : 8,
            "componentType" : 5123,
            "count" : 858,
            "type" : "SCALAR"
        },
        {
            "bufferView" : 10,
            "componentType" : 5126,
            "count" : 308,
            "max" : [
                1.2598037719726562,
                1.215145468711853,
                -0.3926791548728943
            ],
            "min" : [
                -0.974851131439209,
                -0.45732083916664124,
                -0.44119584560394287
            ],
            "type" : "VEC3"
        },
        {
            "bufferView" : 11,
            "componentType" : 5126,
            "count" : 308,
            "type" : "VEC3"
        },
        {
            "bufferView" : 12,
            "componentType" : 5126,
            "count" : 308,
            "type" : "VEC2"
        },
        {
            "bufferView" : 13,
            "componentType" : 5123,
            "count" : 762,
            "type" : "SCALAR"
        },
        {
            "bufferView" : 15,
            "componentType" : 5126,
            "count" : 20,
            "max" : [
                1.0949488878250122,
                1.2151457071304321,
                0.4155064821243286
            ],
            "min" : [
                -0.8099961280822754,
                -0.29246535897254944,
                0.37347185611724854
            ],
            "type" : "VEC3"
        },
        {
            "bufferView" : 16,
            "componentType" : 5126,
            "count" : 20,
            "type" : "VEC3"
        },
        {
            "bufferView" : 17,
            "componentType" : 5126,
            "count" : 20,
            "type" : "VEC2"
        },
        {
            "bufferView" : 18,
            "componentType" : 5123,
            "count" : 36,
            "type" : "SCALAR"
        }
    ],
    "bufferViews" : [
        {
            "buffer" : 0,
            "byteLength" : 10368,
            "byteOffset" : 0
        },
        {
            "buffer" : 0,
            "byteLength" : 10368,
            "byteOffset" : 10368
        },
        {
            "buffer" : 0,
            "byteLength" : 6912,
            "byteOffset" : 20736
        },
        {
            "buffer" : 0,
            "byteLength" : 5160,
            "byteOffset" : 27648
        },
        {
            "buffer" : 0,
            "byteLength" : 113077,
            "byteOffset" : 32808
        },
        {
            "buffer" : 0,
            "byteLength" : 6048,
            "byteOffset" : 145888
        },
        {
            "buffer" : 0,
            "byteLength" : 6048,
            "byteOffset" : 151936
        },
        {
            "buffer" : 0,
            "byteLength" : 4032,
            "byteOffset" : 157984
        },
        {
            "buffer" : 0,
            "byteLength" : 1716,
            "byteOffset" : 162016
        },
        {
            "buffer" : 0,
            "byteLength" : 105825,
            "byteOffset" : 163732
        },
        {
            "buffer" : 0,
            "byteLength" : 3696,
            "byteOffset" : 269560
        },
        {
            "buffer" : 0,
            "byteLength" : 3696,
            "byteOffset" : 273256
        },
        {
            "buffer" : 0,
            "byteLength" : 2464,
            "byteOffset" : 276952
        },
        {
            "buffer" : 0,
            "byteLength" : 1524,
            "byteOffset" : 279416
        },
        {
            "buffer" : 0,
            "byteLength" : 23940,
            "byteOffset" : 280940
        },
        {
            "buffer" : 0,
            "byteLength" : 240,
            "byteOffset" : 304880
        },
        {
            "buffer" : 0,
            "byteLength" : 240,
            "byteOffset" : 305120
        },
        {
            "buffer" : 0,
            "byteLength" : 160,
            "byteOffset" : 305360
        },
        {
            "buffer" : 0,
            "byteLength" : 72,
            "byteOffset" : 305520
        },
        {
            "buffer" : 0,
            "byteLength" : 106806,
            "byteOffset" : 305592
        }
    ],
    "buffers" : [
        {
            "byteLength" : 412400,
            "uri" : "data:application/octet-stream;base64,"
        }
    ]
}
