{
    "asset" : {
        "generator" : "Khronos glTF Blender I/O v1.3.48",
        "version" : "2.0"
    },
    "scene" : 0,
    "scenes" : [
        {
            "name" : "Scene",
            "nodes" : [
                0
            ]
        }
    ],
    "nodes" : [
        {
            "mesh" : 0,
            "name" : "3d66.com_474959",
            "rotation" : [
                0.7071068286895752,
                0,
                0,
                0.7071067094802856
            ],
            "translation" : [
                1.2507524490356445,
                0.2549765408039093,
                4.488142490386963
            ]
        }
    ],
    "materials" : [
        {
            "doubleSided" : true,
            "emissiveFactor" : [
                0,
                0,
                0
            ],
            "name" : "Material #27",
            "pbrMetallicRoughness" : {
                "baseColorTexture" : {
                    "index" : 0,
                    "texCoord" : 0
                },
                "metallicFactor" : 0,
                "roughnessFactor" : 0.5
            }
        },
        {
            "doubleSided" : true,
            "emissiveFactor" : [
                0,
                0,
                0
            ],
            "name" : "Material #25.001",
            "pbrMetallicRoughness" : {
                "baseColorTexture" : {
                    "index" : 1,
                    "texCoord" : 0
                },
                "metallicFactor" : 0,
                "roughnessFactor" : 0.5
            }
        },
        {
            "doubleSided" : true,
            "emissiveFactor" : [
                0,
                0,
                0
            ],
            "name" : "Material #26.001",
            "pbrMetallicRoughness" : {
                "baseColorTexture" : {
                    "index" : 2,
                    "texCoord" : 0
                },
                "metallicFactor" : 0,
                "roughnessFactor" : 0.5
            }
        }
    ],
    "meshes" : [
        {
            "name" : "3d66.com_474959",
            "primitives" : [
                {
                    "attributes" : {
                        "POSITION" : 0,
                        "NORMAL" : 1,
                        "TEXCOORD_0" : 2
                    },
                    "indices" : 3,
                    "material" : 0
                },
                {
                    "attributes" : {
                        "POSITION" : 4,
                        "NORMAL" : 5,
                        "TEXCOORD_0" : 6
                    },
                    "indices" : 7,
                    "material" : 1
                },
                {
                    "attributes" : {
                        "POSITION" : 8,
                        "NORMAL" : 9,
                        "TEXCOORD_0" : 10
                    },
                    "indices" : 11,
                    "material" : 2
                }
            ]
        }
    ],
    "textures" : [
        {
            "source" : 0
        },
        {
            "source" : 1
        },
        {
            "source" : 0
        }
    ],
    "images" : [
        {
            "bufferView" : 4,
            "mimeType" : "image/jpeg",
            "name" : "3d66Model-474959-2-19"
        },
        {
            "bufferView" : 9,
            "mimeType" : "image/jpeg",
            "name" : "wood"
        }
    ],
    "accessors" : [
        {
            "bufferView" : 0,
            "componentType" : 5126,
            "count" : 21841,
            "max" : [
                1.7781949043273926,
                -5.218685626983643,
                1.3633058071136475
            ],
            "min" : [
                -0.7974295616149902,
                -7.309121608734131,
                0.8104972243309021
            ],
            "type" : "VEC3"
        },
        {
            "bufferView" : 1,
            "componentType" : 5126,
            "count" : 21841,
            "type" : "VEC3"
        },
        {
            "bufferView" : 2,
            "componentType" : 5126,
            "count" : 21841,
            "type" : "VEC2"
        },
        {
            "bufferView" : 3,
            "componentType" : 5123,
            "count" : 114336,
            "type" : "SCALAR"
        },
        {
            "bufferView" : 5,
            "componentType" : 5126,
            "count" : 14434,
            "max" : [
                1.7050172090530396,
                -5.212556838989258,
                1.7649972438812256
            ],
            "min" : [
                -0.7324819564819336,
                -7.219860553741455,
                0.8272542953491211
            ],
            "type" : "VEC3"
        },
        {
            "bufferView" : 6,
            "componentType" : 5126,
            "count" : 14434,
            "type" : "VEC3"
        },
        {
            "bufferView" : 7,
            "componentType" : 5126,
            "count" : 14434,
            "type" : "VEC2"
        },
        {
            "bufferView" : 8,
            "componentType" : 5123,
            "count" : 73608,
            "type" : "SCALAR"
        },
        {
            "bufferView" : 10,
            "componentType" : 5126,
            "count" : 2106,
            "max" : [
                1.2833824157714844,
                -5.240237712860107,
                1.7666232585906982
            ],
            "min" : [
                0.1891026496887207,
                -6.3409247398376465,
                1.3447420597076416
            ],
            "type" : "VEC3"
        },
        {
            "bufferView" : 11,
            "componentType" : 5126,
            "count" : 2106,
            "type" : "VEC3"
        },
        {
            "bufferView" : 12,
            "componentType" : 5126,
            "count" : 2106,
            "type" : "VEC2"
        },
        {
            "bufferView" : 13,
            "componentType" : 5123,
            "count" : 3996,
            "type" : "SCALAR"
        }
    ],
    "bufferViews" : [
        {
            "buffer" : 0,
            "byteLength" : 262092,
            "byteOffset" : 0
        },
        {
            "buffer" : 0,
            "byteLength" : 262092,
            "byteOffset" : 262092
        },
        {
            "buffer" : 0,
            "byteLength" : 174728,
            "byteOffset" : 524184
        },
        {
            "buffer" : 0,
            "byteLength" : 228672,
            "byteOffset" : 698912
        },
        {
            "buffer" : 0,
            "byteLength" : 22586,
            "byteOffset" : 927584
        },
        {
            "buffer" : 0,
            "byteLength" : 173208,
            "byteOffset" : 950172
        },
        {
            "buffer" : 0,
            "byteLength" : 173208,
            "byteOffset" : 1123380
        },
        {
            "buffer" : 0,
            "byteLength" : 115472,
            "byteOffset" : 1296588
        },
        {
            "buffer" : 0,
            "byteLength" : 147216,
            "byteOffset" : 1412060
        },
        {
            "buffer" : 0,
            "byteLength" : 11340,
            "byteOffset" : 1559276
        },
        {
            "buffer" : 0,
            "byteLength" : 25272,
            "byteOffset" : 1570616
        },
        {
            "buffer" : 0,
            "byteLength" : 25272,
            "byteOffset" : 1595888
        },
        {
            "buffer" : 0,
            "byteLength" : 16848,
            "byteOffset" : 1621160
        },
        {
            "buffer" : 0,
            "byteLength" : 7992,
            "byteOffset" : 1638008
        }
    ],
    "buffers" : [
        {
            "byteLength" : 1646000,
            "uri" : "data:application/octet-stream;base64,"
        }
    ]
}
